<svg id="visual" viewBox="0 0 900 600" width="900" height="600" xmlns="http://www.w3.org/2000/svg" xmlns:xlink="http://www.w3.org/1999/xlink" version="1.1"><rect width="900" height="600" fill="#001829"></rect><g><g transform="translate(104 583)"><path d="M0 -149.9L117.2 -93.5L146.2 33.4L65 135.1L-65 135.1L-146.2 33.4L-117.2 -93.5Z" fill="#297EA6"></path></g><g transform="translate(778 507)"><path d="M0 -113L88.3 -70.5L110.2 25.1L49 101.8L-49 101.8L-110.2 25.1L-88.3 -70.5Z" fill="#297EA6"></path></g><g transform="translate(9 248)"><path d="M0 -101L79 -63L98.5 22.5L43.8 91L-43.8 91L-98.5 22.5L-79 -63Z" fill="#297EA6"></path></g><g transform="translate(325 16)"><path d="M0 -109L85.2 -68L106.3 24.3L47.3 98.2L-47.3 98.2L-106.3 24.3L-85.2 -68Z" fill="#297EA6"></path></g></g></svg>